HIERARCHY
ROOT root     
{
	OFFSET 0.0000 0.0000 0.0000
	CHANNELS 6 Xposition Yposition Zposition Zrotation Yrotation Xrotation
	JOINT pelvis   
	{
		OFFSET 0.0000 0.0000 0.0000
		CHANNELS 3 Zrotation Yrotation Xrotation
		JOINT thorax   
		{
			OFFSET 0.0000 23.0750 -5.0000
			CHANNELS 3 Zrotation Yrotation Xrotation
			JOINT rclavicle
			{
				OFFSET 0.0000 28.0009 0.0000
				CHANNELS 3 Zrotation Yrotation Xrotation
				JOINT rhumerus 
				{
					OFFSET -18.5725 5.5939 0.0000
					CHANNELS 3 Zrotation Yrotation Xrotation
					JOINT rradius  
					{
						OFFSET -24.8459 0.0000 0.0000
						CHANNELS 3 Zrotation Yrotation Xrotation
						JOINT rhand    
						{
							OFFSET -24.5477 0.0000 0.0000
							CHANNELS 3 Zrotation Yrotation Xrotation
							End Site
							{
								OFFSET -8.1826 0.0000 0.0000
							}
						}
					}
				}
			}
			JOINT lclavicle
			{
				OFFSET 0.0000 28.0009 0.0000
				CHANNELS 3 Zrotation Yrotation Xrotation
				JOINT lhumerus 
				{
					OFFSET 18.5725 5.5939 0.0000
					CHANNELS 3 Zrotation Yrotation Xrotation
					JOINT lradius  
					{
						OFFSET 24.8459 0.0000 0.0000
						CHANNELS 3 Zrotation Yrotation Xrotation
						JOINT lhand    
						{
							OFFSET 24.5477 0.0000 0.0000
							CHANNELS 3 Zrotation Yrotation Xrotation
							End Site
							{
								OFFSET 8.1826 0.0000 0.0000
							}
						}
					}
				}
			}
			JOINT head     
			{
				OFFSET 0.0000 35.2030 0.0000
				CHANNELS 3 Zrotation Yrotation Xrotation
				End Site
				{
					OFFSET 0.0000 11.7343 0.0000
				}
			}
		}
		JOINT rfemur   
		{
			OFFSET -8.2817 0.0000 0.0000
			CHANNELS 3 Zrotation Yrotation Xrotation
			JOINT rtibia   
			{
				OFFSET 0.0000 -43.3627 0.0000
				CHANNELS 3 Zrotation Yrotation Xrotation
				JOINT rfoot    
				{
					OFFSET 0.0000 -38.2947 0.0000
					CHANNELS 3 Zrotation Yrotation Xrotation
					JOINT rtoes    
					{
						OFFSET 0.0000 0.0000 16.6054
						CHANNELS 3 Zrotation Yrotation Xrotation
						End Site
						{
							OFFSET 0.0000 0.0000 5.5351
						}
					}
				}
			}
		}
		JOINT lfemur   
		{
			OFFSET 8.2817 0.0000 0.0000
			CHANNELS 3 Zrotation Yrotation Xrotation
			JOINT ltibia   
			{
				OFFSET 0.0000 -43.3627 0.0000
				CHANNELS 3 Zrotation Yrotation Xrotation
				JOINT lfoot    
				{
					OFFSET 0.0000 -38.2947 0.0000
					CHANNELS 3 Zrotation Yrotation Xrotation
					JOINT ltoes    
					{
						OFFSET 0.0000 0.0000 16.6054
						CHANNELS 3 Zrotation Yrotation Xrotation
						End Site
						{
							OFFSET 0.0000 0.0000 5.5351
						}
					}
				}
			}
		}
	}
}
MOTION
Frames: 23
Frame Time: .0333333
-36.023 88.814 2.0204 75.1808 86.2484 94.0823 0 -0 0 1.98747 -0.152502 -4.87218 21.6885 -6.45951 2.41536e-05 49.5541 13.7342 12.3255 -1.46477e-06 76.7982 -1.1609e-06 -5.12514 6.3155 -0.282895 -28.7378 16.4637 -1.8798e-05 -38.7278 4.74948 -5.215 3.99476e-06 -89.3535 -4.59679e-06 7.75228 -2.75333 -0.186598 -25.646 9.71782 -7.77611 -2.21323 -5.86704 -6.87488 -0 -0 12.7634 1.41789e-05 2.44155 12.4108 0.525005 9.22233e-06 -57.5182 -8.19982 4.72128 -31.6955 -0 -0 35.481 1.45135e-05 15.3407 1.62624 0.445997 -3.46067e-06 -30.7211 
-35.115 88.713 2.012 73.6025 86.4222 92.5034 0 -0 0 1.78996 0.1172 -4.78337 21.5759 -6.43309 7.84734e-05 49.0244 14.2236 13.3157 -0 77.6965 -0 -4.6445 6.27783 -0.254798 -28.572 16.5651 -4.99024e-05 -39.0372 5.16092 -5.65809 0 -89.3729 0 8.02729 -2.81702 -0.197697 -25.1488 9.86048 -7.9574 -2.16829 -5.87004 -6.38852 -0 -0 12.9282 -7.90455e-06 2.75487 12.6125 0.601996 2.99428e-06 -58.5621 -8.77218 4.72453 -32.3569 -0 -0 34.1672 6.95339e-06 15.0396 1.28961 0.346502 -5.29585e-07 -30.8173 
-34.191 88.601 2.0053 72.2238 86.6073 91.1184 0 -0 0 1.59602 0.361598 -4.70504 21.4716 -6.41563 1.9467e-05 48.5093 14.6885 14.2758 -1.6725e-06 78.6126 -1.36916e-06 -4.2302 6.22496 -0.230101 -28.4008 16.671 -9.55054e-05 -39.3787 5.56404 -6.07719 0 -89.4755 0 8.30157 -2.87585 -0.2088 -24.6085 9.99663 -8.13445 -2.10793 -5.88549 -5.89979 -0 -0 13.1323 1.17516e-05 3.11094 12.8281 0.691308 -2.78687e-07 -59.6459 -9.39557 4.82708 -32.9756 -0 -0 32.7716 -2.16396e-06 14.6277 0.947299 0.247198 -6.51866e-07 -31.4631 
-33.248 88.476 2.0037 70.9779 86.8344 89.8584 0 -0 0 1.41659 0.585095 -4.63644 21.3762 -6.41247 1.27803e-05 48.008 15.128 15.21 -1.27754e-06 79.5354 -1.06319e-06 -3.88383 6.15659 -0.208897 -28.2215 16.7791 2.52478e-05 -39.7578 5.95854 -6.47296 0 -89.5003 0 8.56546 -2.92646 -0.219201 -24.0319 10.124 -8.30494 -2.01681 -5.90702 -5.4016 -0 -0 13.3618 -6.44244e-06 3.49745 13.0692 0.791803 9.49643e-06 -60.7599 -10.0657 5.03927 -33.5374 -0 -0 31.271 -2.50365e-06 14.1054 0.6208 0.155995 -1.56916e-06 -32.6312 
-32.286 88.338 2.0105 69.8199 87.0823 88.6798 0 -0 0 1.26095 0.795201 -4.58378 21.2815 -6.42233 -4.59995e-05 47.5286 15.5315 16.1116 -2.35732e-06 80.4809 -2.78566e-06 -3.58923 6.07462 -0.190495 -28.0277 16.8853 0.000100162 -40.1795 6.35456 -6.84568 0 -89.5262 0 8.8115 -2.96817 -0.228701 -23.4227 10.2407 -8.46322 -1.88056 -5.92952 -4.8934 -0 -0 13.6124 -3.01411e-05 3.89886 13.3406 0.901001 -1.10685e-05 -61.8821 -10.7747 5.36431 -34.0317 -0 -0 29.6598 -1.04642e-08 13.4819 0.324905 0.0778994 -1.88904e-07 -34.0691 
-31.297 88.182 2.0317 68.656 87.3947 87.4671 0 -0 0 1.148 0.993496 -4.52395 21.2039 -6.47195 -7.10475e-05 47.033 15.94 17.0182 -1.86795e-06 81.4284 -2.17065e-06 -3.37681 5.98614 -0.1766 -27.8238 16.9948 0.000236725 -40.6409 6.73667 -7.19201 -3.22094e-05 -89.6717 3.19928e-05 9.03573 -2.99525 -0.236702 -22.7803 10.3408 -8.6109 -1.67608 -5.94087 -4.33752 -0 -0 13.8557 -1.63891e-05 4.28208 13.6643 1.01338 -2.62369e-06 -63.0105 -11.5065 5.82603 -34.4252 -0 -0 27.9266 9.91051e-07 12.7563 0.127701 0.0289003 -9.16045e-08 -36.0382 
-30.282 88.006 2.0687 67.1391 87.7637 85.883 0 -0 0 1.07791 1.19153 -4.4783 21.1274 -6.54191 -4.25303e-05 46.5502 16.3105 17.8977 -0 82.3943 -0 -3.19577 5.8972 -0.164698 -27.5936 17.0949 3.09313e-05 -41.1547 7.13513 -7.5147 0.000187678 -89.7106 -0.000187741 9.23487 -3.01266 -0.2434 -22.0962 10.4212 -8.73608 -1.39738 -5.94086 -3.75268 -0 -0 14.1038 -9.33315e-06 4.63271 14.0209 1.1247 -2.16578e-08 -64.1291 -12.2466 6.40876 -34.7312 -0 -0 26.1164 5.33817e-08 11.9472 0.00960002 0.00199999 1.23493e-08 -37.8269 
-29.239 87.807 2.1236 64.7772 88.2016 83.4287 0 -0 0 1.0491 1.39227 -4.44304 21.0643 -6.64609 -4.15573e-05 46.0579 16.665 18.7695 -0 83.3731 -0 -3.04985 5.81861 -0.154997 -27.3332 17.1867 -0.000104529 -41.7199 7.54936 -7.81107 1.68979e-05 -89.7525 -1.74975e-05 9.40958 -3.01984 -0.248599 -21.3579 10.4795 -8.83609 -1.04129 -5.93464 -3.13238 -0 -0 14.3592 -1.45315e-06 4.93834 14.4027 1.23121 7.14593e-07 -65.2388 -12.9776 7.10632 -34.946 -0 -0 24.2718 2.01833e-08 11.0767 0.0138006 0.00270004 1.9042e-08 -39.448 
-28.165 87.581 2.1976 60.1879 88.7206 78.7158 0 -0 0 1.0587 1.59635 -4.42146 21.0156 -6.77724 -5.811e-05 45.5531 16.9936 19.6271 -2.06296e-06 84.3599 -2.27667e-06 -2.91918 5.76267 -0.147004 -27.0341 17.2641 0.000121445 -42.3359 7.99201 -8.08345 0.000347421 -89.7934 -0.000347261 9.56289 -3.01951 -0.252596 -20.5479 10.5125 -8.90664 -0.607206 -5.91944 -2.475 -0 -0 14.6247 1.71617e-05 5.18126 14.8006 1.32691 2.3748e-06 -66.3639 -13.6746 7.90068 -35.0866 -0 -0 22.4752 4.70396e-07 10.1692 0.122305 0.0218999 2.38625e-08 -40.5539 
-27.064 87.329 2.2876 48.2705 89.2815 66.6502 0 -0 0 1.08221 1.80062 -4.42289 20.9931 -6.93693 6.18799e-05 45.0249 17.3043 20.4768 -1.78602e-06 85.3627 -1.93705e-06 -2.79365 5.74186 -0.140096 -26.6961 17.3292 0.000143434 -42.9936 8.46762 -8.33229 -0.00160202 -90 0.00160202 9.6984 -3.01475 -0.255801 -19.6445 10.5195 -8.94555 -0.116996 -5.9188 -1.80126 -0 -0 14.9275 2.60393e-05 5.38017 15.1908 1.4136 1.66891e-06 -67.5303 -14.3149 8.7457 -35.1692 -0 -0 20.8103 4.75937e-08 9.27684 0.337099 0.0550996 2.29023e-07 -41.1419 
-25.937 87.051 2.3891 0.819884 89.6545 19.0436 0 -0 0 1.09082 1.99676 -4.4577 21.0112 -7.1193 -6.51618e-05 44.4636 17.6024 21.3158 -9.06349e-06 86.3523 -9.21979e-06 -2.66093 5.7675 -0.134095 -26.3181 17.3822 -3.86163e-05 -43.6768 8.97989 -8.55995 -180 -89.8005 180 9.81986 -3.00819 -0.258498 -18.6249 10.5015 -8.95285 0.399792 -5.95543 -1.13429 -0 -0 15.2966 6.40545e-06 5.56176 15.554 1.49574 1.41035e-05 -68.7801 -14.8692 9.5751 -35.2183 -0 -0 19.3665 -2.66183e-07 8.46238 0.621499 0.0925014 -7.08634e-08 -41.0878 
-24.791 86.749 2.4966 -65.8345 89.407 -47.7596 0 -0 0 1.05379 2.17284 -4.53538 21.0787 -7.31329 4.87584e-05 43.8695 17.8823 22.1399 -0 87.3288 -0 -2.50729 5.84841 -0.128099 -25.9066 17.4224 7.71655e-05 -44.3687 9.52653 -8.77106 -180 -89.7372 180 9.93053 -3.00417 -0.261095 -17.4717 10.4611 -8.93198 0.909089 -6.05035 -0.500395 -0 -0 15.7578 -7.1972e-06 5.7612 15.881 1.58139 -1.9985e-05 -70.1584 -15.3041 10.3124 -35.2558 -0 -0 18.2316 -2.81963e-07 7.79404 0.914985 0.125195 -1.73125e-06 -40.2584 
-23.63 86.429 2.6021 -83.1825 88.8652 -65.248 0 -0 0 0.934488 2.31504 -4.66377 21.2124 -7.51155 -4.9043e-05 43.2388 18.1504 22.9454 -6.59615e-06 88.274 -6.79588e-06 -2.32466 5.98902 -0.121598 -25.4747 17.4537 -4.6547e-05 -45.0397 10.1006 -8.96912 -180 -89.6465 180 10.0322 -3.00439 -0.263799 -16.1702 10.4017 -8.88829 1.3656 -6.23616 0.0668984 -0 -0 16.3502 -1.57495e-05 6.03836 16.1621 1.6866 8.55907e-06 -71.6952 -15.5896 10.8681 -35.2936 -0 -0 17.4706 -3.52171e-06 7.34933 1.15876 0.149499 -1.83008e-06 -38.5952 
-22.462 86.096 2.698 -89.2263 88.3684 -71.419 0 -0 0 0.704399 2.40991 -4.84467 21.4164 -7.70384 -2.83048e-05 42.575 18.4056 23.7237 -8.78595e-06 89.281 -8.90517e-06 -2.10408 6.18805 -0.113699 -25.0383 17.4791 0.000105653 -45.6664 10.685 -9.15674 -180 -89.4558 180 10.1246 -3.00989 -0.266697 -14.7187 10.3283 -8.83034 1.72666 -6.54016 0.539312 -0 -0 17.1087 1.62215e-05 6.45556 16.4022 1.83005 2.43379e-05 -73.4006 -15.704 11.1685 -35.3408 -0 -0 17.1346 -1.29773e-06 7.18223 1.2853 0.162004 3.79012e-07 -36.0381 
-21.292 85.757 2.7772 -92.1445 87.9542 -74.4424 0 -0 0 0.346106 2.44805 -5.07399 21.6937 -7.88572 1.11034e-05 41.8898 18.6538 24.4754 -180 89.7976 -180 -1.84114 6.43926 -0.103602 -24.6203 17.504 -7.18534e-05 -46.2215 11.2594 -9.33415 -180 -89.3101 180 10.2071 -3.01951 -0.269704 -13.1267 10.2468 -8.76693 1.95637 -6.98071 0.89331 -0 -0 18.0607 -1.73316e-05 7.07323 16.6124 2.03171 4.36926e-05 -75.2404 -15.6421 11.1768 -35.4059 -0 -0 17.2563 -1.84059e-06 7.30795 1.22945 0.157702 5.34627e-07 -32.5407 
-20.124 85.419 2.8343 -93.8368 87.6191 -76.218 0 -0 0 -0.141701 2.42521 -5.33662 22.0304 -8.04727 2.67567e-06 41.2085 18.8866 25.1906 -180 89.0119 -180 -1.52431 6.72935 -0.0896011 -24.2393 17.5304 6.88118e-06 -46.6858 11.8018 -9.501 180 -89.2001 180 10.276 -3.03067 -0.272602 -11.4168 10.1638 -8.70773 2.03005 -7.56771 1.11866 -0 -0 19.2267 -5.49027e-05 7.93966 16.8251 2.31182 3.28534e-05 -77.1616 -15.4269 10.9034 -35.5021 -0 -0 17.8613 -7.16255e-07 7.68596 0.940395 0.126896 -5.84245e-07 -28.1628 
-18.958 85.086 2.8654 -94.8856 87.3737 -77.3381 0 -0 0 -0.744596 2.34528 -5.6117 22.4045 -8.18573 7.93712e-06 40.5577 19.1026 25.8651 -180 88.2134 -180 -1.14611 7.04113 -0.0705014 -23.9165 17.5637 -8.57963e-05 -47.0473 12.2861 -9.65331 -180 -89.1281 180 10.3297 -3.03772 -0.274607 -9.62444 10.0865 -8.66174 1.93515 -8.29599 1.21456 -0 -0 20.6192 -2.9818e-05 9.08276 17.0795 2.68831 -3.44886e-05 -79.0705 -15.0992 10.4077 -35.6388 -0 -0 18.947 5.62377e-08 8.23605 0.396207 0.0573008 -2.04775e-07 -23.1045 
-17.796 84.765 2.868 -95.4256 87.209 -77.9517 0 -0 0 -1.43604 2.22083 -5.87181 22.7884 -8.30005 5.92458e-06 39.9681 19.2966 26.4925 -180 87.479 -180 -0.696612 7.35341 -0.0448011 -23.6688 17.6044 0.000161886 -47.3018 12.6841 -9.78469 -180 -89.2074 180 10.3658 -3.03457 -0.2753 -7.79475 10.022 -8.63638 1.67128 -9.14801 1.1917 -0 -0 22.2372 -3.2661e-05 10.5039 17.4228 3.1776 -1.81994e-05 -80.854 -14.7096 9.77125 -35.8112 -0 -0 20.4671 -1.94894e-07 8.86273 -0.383694 -0.0598 -2.30959e-07 -17.7499 
-16.635 84.46 2.84 -95.4851 87.1163 -78.1024 0 -0 0 -2.18467 2.07096 -6.08834 23.1495 -8.39136 7.29154e-06 39.4716 19.4606 27.0705 -180 86.8028 -180 -0.166101 7.64407 -0.0111001 -23.514 17.6526 -1.17907e-05 -47.4492 12.9737 -9.8894 -180 -89.3439 180 10.3846 -3.01249 -0.273791 -5.97903 9.97709 -8.63649 1.24365 -10.0953 1.06662 -0 -0 24.0722 8.34672e-05 12.1743 17.9019 3.79396 -5.70666e-06 -82.3987 -14.3075 9.07768 -35.9909 -0 -0 22.3249 9.16769e-07 9.4879 -1.34029 -0.223996 1.20986e-06 -12.6066 
-15.475 84.177 2.777 -94.9351 87.1204 -77.6793 0 -0 0 -2.97079 1.91829 -6.23672 23.4672 -8.46157 1.82349e-05 39.0919 19.587 27.5918 -180 86.2092 -180 0.453899 7.89143 0.0312998 -23.4593 17.7052 6.6052e-05 -47.4998 13.1317 -9.96059 -180 -89.6688 180 10.3888 -2.96394 -0.269507 -4.22426 9.95695 -8.66391 0.649603 -11.1128 0.854409 -0 -0 26.1154 -2.49472e-06 14.0427 18.5541 4.55052 4.82018e-05 -83.5911 -13.9388 8.38393 -36.1206 -0 -0 24.374 -1.87265e-06 10.071 -2.39627 -0.425501 1.97361e-07 -8.13837 
-14.319 83.922 2.6814 -93.7716 87.1553 -76.6799 0 -0 0 -3.7498 1.78326 -6.31064 23.7218 -8.51513 -8.60901e-06 38.8344 19.6697 28.0524 -180 85.6707 -180 1.16654 8.07607 0.0823956 -23.5189 17.7557 -7.1213e-05 -47.4564 13.1498 -9.99571 -180 -89.8179 180 10.3829 -2.87995 -0.2617 -2.57954 9.96684 -8.7159 -0.0688025 -12.1314 0.566902 -0 -0 28.3224 5.71095e-05 15.9846 19.4116 5.43811 -2.15547e-05 -84.33 -13.6236 7.74229 -36.1579 -0 -0 26.4626 -3.67907e-06 10.5854 -3.49126 -0.651998 1.74156e-07 -4.62578 
-13.166 83.7 2.5446 -91.7015 87.2866 -74.817 0 -0 0 -4.53883 1.68418 -6.30387 23.9138 -8.55492 5.20232e-05 38.7038 19.6973 28.4451 -180 85.2189 -180 1.97267 8.18239 0.141099 -23.6791 17.7989 0.000100561 -47.343 13.0133 -9.98627 -1.75952e-05 -89.5043 1.77461e-05 10.3749 -2.75588 -0.250197 -1.0701 10.0083 -8.78718 -0.93402 -13.1449 0.200704 -0 -0 30.6937 0.000118069 17.9143 20.4656 6.44855 -2.40379e-05 -84.542 -13.4117 7.16419 -36.0391 -0 -0 28.4131 1.00433e-05 11.0537 -4.57575 -0.892892 4.32469e-07 -2.13042 
-12.024 83.517 2.374 -88.7496 87.4169 -72.0971 0 -0 0 -5.29056 1.63113 -6.23668 24.0413 -8.58397 8.2058e-05 38.6849 19.6648 28.7644 -180 84.8416 -180 2.86292 8.2013 0.205302 -23.9427 17.8279 6.91452e-05 -47.175 12.7318 -9.93268 -7.78917e-06 -88.9029 8.37223e-06 10.3743 -2.58668 -0.234902 0.275204 10.0837 -8.86667 -1.87335 -14.08 -0.251598 -0 -0 33.1746 -3.36985e-05 19.6467 21.7063 7.52177 -1.58113e-05 -84.1774 -13.2958 6.6765 -35.7564 -0 -0 30.1166 1.0216e-05 11.4758 -5.63202 -1.14139 -1.71429e-09 -0.586094 
